<?xml version="1.0" encoding="UTF-8"?>
<svg xmlns="http://www.w3.org/2000/svg" xmlns:xlink="http://www.w3.org/1999/xlink" width="100px" height="400px" viewBox="0 0 100 400" version="1.1">
<g id="surface1">
<path style=" stroke:none;fill-rule:nonzero;fill:rgb(0%,0%,0%);fill-opacity:1;" d="M 58.347656 16.417969 C 38.953125 16.417969 20.078125 98.175781 16.191406 199.023438 C 14.8125 234.875 15.511719 268.304688 17.855469 296.515625 C 17.058594 291.507812 16.308594 286.289062 15.617188 280.863281 C 12.390625 255.601562 10.804688 229.785156 10.734375 205.652344 C 8.441406 233.972656 9.152344 270.082031 13.5625 304.589844 C 18.972656 346.957031 29.492188 376.417969 40.878906 380.765625 C 41.984375 381.332031 43.113281 381.628906 44.269531 381.628906 C 63.664062 381.628906 82.539062 299.875 86.425781 199.023438 C 88.238281 151.996094 86.46875 109.125 82.101562 76.753906 C 86.324219 93.835938 89.242188 112.523438 90.816406 131.046875 C 90.9375 107.289062 88.070312 79.667969 82.183594 56.199219 C 75.597656 29.949219 67.097656 16.425781 59.722656 16.570312 C 59.265625 16.480469 58.808594 16.417969 58.347656 16.417969 Z M 57.253906 44.824219 C 65.109375 44.824219 71.636719 60.714844 75.945312 86.644531 C 79.054688 120.152344 78.386719 171.265625 76.136719 202.160156 C 73.007812 245.085938 68.207031 277.1875 60.554688 300.679688 C 52.394531 325.746094 41.328125 319.734375 37.925781 296.152344 C 37.65625 294.304688 37.4375 292.375 37.265625 290.382812 C 39.554688 301.367188 44.722656 302.054688 49.339844 291.398438 C 54.316406 279.90625 56.761719 259.578125 54.800781 246 C 52.839844 232.417969 47.21875 230.726562 42.242188 242.222656 C 40.320312 246.65625 38.78125 252.40625 37.722656 258.574219 C 37.820312 257.5625 37.925781 256.550781 38.039062 255.542969 C 34.390625 274.675781 33.242188 296.269531 35.527344 312.121094 C 43.089844 347.996094 54.683594 332.042969 63.019531 307.101562 C 70.429688 284.917969 77.144531 249.640625 80.472656 203.984375 C 80.71875 200.59375 80.941406 197.207031 81.148438 193.820312 C 81.09375 195.554688 81.03125 197.292969 80.964844 199.039062 C 77.683594 284.210938 61.746094 353.253906 45.367188 353.253906 C 38.402344 353.253906 32.484375 340.773438 28.230469 319.886719 C 23.054688 282.078125 25.105469 208.886719 29.140625 175.238281 C 34.367188 131.691406 42.058594 79.324219 55.378906 83.984375 C 64.367188 87.132812 67.699219 129.796875 63.019531 174.78125 C 61.335938 190.941406 58.878906 205.496094 55.945312 217.214844 C 60.8125 204.246094 65.070312 184.300781 67.582031 160.183594 C 72.265625 115.195312 68.9375 71.574219 59.941406 68.929688 C 43.195312 64.011719 33.058594 114.671875 25.261719 169.308594 C 23.464844 184.855469 22.101562 200.832031 21.167969 216.734375 C 21.261719 210.925781 21.421875 205.023438 21.652344 199.039062 C 24.933594 113.867188 40.875 44.824219 57.253906 44.824219 Z M 57.253906 44.824219 "/>
</g>
</svg>
