{
  "meta": {
    "id": "project-Y6GR1AZeast2L7GDEWVRe",
    "name": "Prelude + Sin(0 to π/2)",
    "dateCreated": "2025-05-30T23:08:52-04:00",
    "lastUpdated": "2025-05-30T23:11:54-04:00",
    "diary": ["", "", "", "", "", "", "", "", "", ""]
  },
  "tracks": {
    "entities": {
      "pattern-track_hcsVd73Ho5iWV7LtD-dA3": {
        "id": "pattern-track_hcsVd73Ho5iWV7LtD-dA3",
        "instrumentId": "gyF2-qlXY5TaEWKQMvfq7",
        "trackIds": [],
        "order": 1
      }
    },
    "ids": ["pattern-track_hcsVd73Ho5iWV7LtD-dA3"]
  },
  "scales": { "entities": {}, "ids": [] },
  "patterns": {
    "entities": {
      "pattern_AoNZorXxksdx1ShDeNCG_": {
        "id": "pattern_AoNZorXxksdx1ShDeNCG_",
        "stream": [
          [{ "duration": 24, "velocity": 100, "MIDI": 60 }],
          [{ "duration": 24, "velocity": 100, "MIDI": 64 }],
          [{ "duration": 24, "velocity": 100, "MIDI": 67 }],
          [{ "duration": 24, "velocity": 100, "MIDI": 72 }],
          [{ "duration": 24, "velocity": 100, "MIDI": 76 }],
          [{ "duration": 24, "velocity": 100, "MIDI": 67 }],
          [{ "duration": 24, "velocity": 100, "MIDI": 72 }],
          [{ "duration": 24, "velocity": 100, "MIDI": 76 }],
          [{ "duration": 24, "velocity": 100, "MIDI": 60 }],
          [{ "duration": 24, "velocity": 100, "MIDI": 64 }],
          [{ "duration": 24, "velocity": 100, "MIDI": 67 }],
          [{ "duration": 24, "velocity": 100, "MIDI": 72 }],
          [{ "duration": 24, "velocity": 100, "MIDI": 76 }],
          [{ "duration": 24, "velocity": 100, "MIDI": 67 }],
          [{ "duration": 24, "velocity": 100, "MIDI": 72 }],
          [{ "duration": 24, "velocity": 100, "MIDI": 76 }],
          [{ "duration": 24, "velocity": 100, "MIDI": 60 }],
          [{ "duration": 24, "velocity": 100, "MIDI": 62 }],
          [{ "duration": 24, "velocity": 100, "MIDI": 69 }],
          [{ "duration": 24, "velocity": 100, "MIDI": 74 }],
          [{ "duration": 24, "velocity": 100, "MIDI": 77 }],
          [{ "duration": 24, "velocity": 100, "MIDI": 69 }],
          [{ "duration": 24, "velocity": 100, "MIDI": 74 }],
          [{ "duration": 24, "velocity": 100, "MIDI": 77 }],
          [{ "duration": 24, "velocity": 100, "MIDI": 60 }],
          [{ "duration": 24, "velocity": 100, "MIDI": 62 }],
          [{ "duration": 24, "velocity": 100, "MIDI": 69 }],
          [{ "duration": 24, "velocity": 100, "MIDI": 74 }],
          [{ "duration": 24, "velocity": 100, "MIDI": 77 }],
          [{ "duration": 24, "velocity": 100, "MIDI": 69 }],
          [{ "duration": 24, "velocity": 100, "MIDI": 74 }],
          [{ "duration": 24, "velocity": 100, "MIDI": 77 }],
          [{ "duration": 24, "velocity": 100, "MIDI": 59 }],
          [{ "duration": 24, "velocity": 100, "MIDI": 62 }],
          [{ "duration": 24, "velocity": 100, "MIDI": 67 }],
          [{ "duration": 24, "velocity": 100, "MIDI": 74 }],
          [{ "duration": 24, "velocity": 100, "MIDI": 77 }],
          [{ "duration": 24, "velocity": 100, "MIDI": 67 }],
          [{ "duration": 24, "velocity": 100, "MIDI": 74 }],
          [{ "duration": 24, "velocity": 100, "MIDI": 77 }],
          [{ "duration": 24, "velocity": 100, "MIDI": 59 }],
          [{ "duration": 24, "velocity": 100, "MIDI": 62 }],
          [{ "duration": 24, "velocity": 100, "MIDI": 67 }],
          [{ "duration": 24, "velocity": 100, "MIDI": 74 }],
          [{ "duration": 24, "velocity": 100, "MIDI": 77 }],
          [{ "duration": 24, "velocity": 100, "MIDI": 67 }],
          [{ "duration": 24, "velocity": 100, "MIDI": 74 }],
          [{ "duration": 24, "velocity": 100, "MIDI": 77 }],
          [{ "duration": 24, "velocity": 100, "MIDI": 60 }],
          [{ "duration": 24, "velocity": 100, "MIDI": 64 }],
          [{ "duration": 24, "velocity": 100, "MIDI": 67 }],
          [{ "duration": 24, "velocity": 100, "MIDI": 72 }],
          [{ "duration": 24, "velocity": 100, "MIDI": 76 }],
          [{ "duration": 24, "velocity": 100, "MIDI": 67 }],
          [{ "duration": 24, "velocity": 100, "MIDI": 72 }],
          [{ "duration": 24, "velocity": 100, "MIDI": 76 }],
          [{ "duration": 24, "velocity": 100, "MIDI": 60 }],
          [{ "duration": 24, "velocity": 100, "MIDI": 64 }],
          [{ "duration": 24, "velocity": 100, "MIDI": 67 }],
          [{ "duration": 24, "velocity": 100, "MIDI": 72 }],
          [{ "duration": 24, "velocity": 100, "MIDI": 76 }],
          [{ "duration": 24, "velocity": 100, "MIDI": 67 }],
          [{ "duration": 24, "velocity": 100, "MIDI": 72 }],
          [{ "duration": 24, "velocity": 100, "MIDI": 76 }],
          [{ "duration": 24, "velocity": 100, "MIDI": 60 }],
          [{ "duration": 24, "velocity": 100, "MIDI": 64 }],
          [{ "duration": 24, "velocity": 100, "MIDI": 69 }],
          [{ "duration": 24, "velocity": 100, "MIDI": 76 }],
          [{ "duration": 24, "velocity": 100, "MIDI": 81 }],
          [{ "duration": 24, "velocity": 100, "MIDI": 69 }],
          [{ "duration": 24, "velocity": 100, "MIDI": 76 }],
          [{ "duration": 24, "velocity": 100, "MIDI": 81 }],
          [{ "duration": 24, "velocity": 100, "MIDI": 60 }],
          [{ "duration": 24, "velocity": 100, "MIDI": 64 }],
          [{ "duration": 24, "velocity": 100, "MIDI": 69 }],
          [{ "duration": 24, "velocity": 100, "MIDI": 76 }],
          [{ "duration": 24, "velocity": 100, "MIDI": 81 }],
          [{ "duration": 24, "velocity": 100, "MIDI": 69 }],
          [{ "duration": 24, "velocity": 100, "MIDI": 76 }],
          [{ "duration": 24, "velocity": 100, "MIDI": 81 }],
          [{ "duration": 24, "velocity": 100, "MIDI": 60 }],
          [{ "duration": 24, "velocity": 100, "MIDI": 62 }],
          [{ "duration": 24, "velocity": 100, "MIDI": 66 }],
          [{ "duration": 24, "velocity": 100, "MIDI": 69 }],
          [{ "duration": 24, "velocity": 100, "MIDI": 74 }],
          [{ "duration": 24, "velocity": 100, "MIDI": 66 }],
          [{ "duration": 24, "velocity": 100, "MIDI": 69 }],
          [{ "duration": 24, "velocity": 100, "MIDI": 74 }],
          [{ "duration": 24, "velocity": 100, "MIDI": 60 }],
          [{ "duration": 24, "velocity": 100, "MIDI": 62 }],
          [{ "duration": 24, "velocity": 100, "MIDI": 66 }],
          [{ "duration": 24, "velocity": 100, "MIDI": 69 }],
          [{ "duration": 24, "velocity": 100, "MIDI": 74 }],
          [{ "duration": 24, "velocity": 100, "MIDI": 66 }],
          [{ "duration": 24, "velocity": 100, "MIDI": 69 }],
          [{ "duration": 24, "velocity": 100, "MIDI": 74 }],
          [{ "duration": 24, "velocity": 100, "MIDI": 59 }],
          [{ "duration": 24, "velocity": 100, "MIDI": 62 }],
          [{ "duration": 24, "velocity": 100, "MIDI": 67 }],
          [{ "duration": 24, "velocity": 100, "MIDI": 74 }],
          [{ "duration": 24, "velocity": 100, "MIDI": 79 }],
          [{ "duration": 24, "velocity": 100, "MIDI": 67 }],
          [{ "duration": 24, "velocity": 100, "MIDI": 74 }],
          [{ "duration": 24, "velocity": 100, "MIDI": 79 }],
          [{ "duration": 24, "velocity": 100, "MIDI": 59 }],
          [{ "duration": 24, "velocity": 100, "MIDI": 62 }],
          [{ "duration": 24, "velocity": 100, "MIDI": 67 }],
          [{ "duration": 24, "velocity": 100, "MIDI": 74 }],
          [{ "duration": 24, "velocity": 100, "MIDI": 79 }],
          [{ "duration": 24, "velocity": 100, "MIDI": 67 }],
          [{ "duration": 24, "velocity": 100, "MIDI": 74 }],
          [{ "duration": 24, "velocity": 100, "MIDI": 79 }],
          [{ "duration": 24, "velocity": 100, "MIDI": 59 }],
          [{ "duration": 24, "velocity": 100, "MIDI": 60 }],
          [{ "duration": 24, "velocity": 100, "MIDI": 64 }],
          [{ "duration": 24, "velocity": 100, "MIDI": 67 }],
          [{ "duration": 24, "velocity": 100, "MIDI": 72 }],
          [{ "duration": 24, "velocity": 100, "MIDI": 64 }],
          [{ "duration": 24, "velocity": 100, "MIDI": 67 }],
          [{ "duration": 24, "velocity": 100, "MIDI": 72 }],
          [{ "duration": 24, "velocity": 100, "MIDI": 59 }],
          [{ "duration": 24, "velocity": 100, "MIDI": 60 }],
          [{ "duration": 24, "velocity": 100, "MIDI": 64 }],
          [{ "duration": 24, "velocity": 100, "MIDI": 67 }],
          [{ "duration": 24, "velocity": 100, "MIDI": 72 }],
          [{ "duration": 24, "velocity": 100, "MIDI": 64 }],
          [{ "duration": 24, "velocity": 100, "MIDI": 67 }],
          [{ "duration": 24, "velocity": 100, "MIDI": 72 }],
          [{ "duration": 24, "velocity": 100, "MIDI": 57 }],
          [{ "duration": 24, "velocity": 100, "MIDI": 60 }],
          [{ "duration": 24, "velocity": 100, "MIDI": 64 }],
          [{ "duration": 24, "velocity": 100, "MIDI": 67 }],
          [{ "duration": 24, "velocity": 100, "MIDI": 72 }],
          [{ "duration": 24, "velocity": 100, "MIDI": 64 }],
          [{ "duration": 24, "velocity": 100, "MIDI": 67 }],
          [{ "duration": 24, "velocity": 100, "MIDI": 72 }],
          [{ "duration": 24, "velocity": 100, "MIDI": 57 }],
          [{ "duration": 24, "velocity": 100, "MIDI": 60 }],
          [{ "duration": 24, "velocity": 100, "MIDI": 64 }],
          [{ "duration": 24, "velocity": 100, "MIDI": 67 }],
          [{ "duration": 24, "velocity": 100, "MIDI": 72 }],
          [{ "duration": 24, "velocity": 100, "MIDI": 64 }],
          [{ "duration": 24, "velocity": 100, "MIDI": 67 }],
          [{ "duration": 24, "velocity": 100, "MIDI": 72 }],
          [{ "duration": 24, "velocity": 100, "MIDI": 50 }],
          [{ "duration": 24, "velocity": 100, "MIDI": 57 }],
          [{ "duration": 24, "velocity": 100, "MIDI": 62 }],
          [{ "duration": 24, "velocity": 100, "MIDI": 66 }],
          [{ "duration": 24, "velocity": 100, "MIDI": 72 }],
          [{ "duration": 24, "velocity": 100, "MIDI": 62 }],
          [{ "duration": 24, "velocity": 100, "MIDI": 66 }],
          [{ "duration": 24, "velocity": 100, "MIDI": 72 }],
          [{ "duration": 24, "velocity": 100, "MIDI": 50 }],
          [{ "duration": 24, "velocity": 100, "MIDI": 57 }],
          [{ "duration": 24, "velocity": 100, "MIDI": 62 }],
          [{ "duration": 24, "velocity": 100, "MIDI": 66 }],
          [{ "duration": 24, "velocity": 100, "MIDI": 72 }],
          [{ "duration": 24, "velocity": 100, "MIDI": 62 }],
          [{ "duration": 24, "velocity": 100, "MIDI": 66 }],
          [{ "duration": 24, "velocity": 100, "MIDI": 72 }],
          [{ "duration": 24, "velocity": 100, "MIDI": 55 }],
          [{ "duration": 24, "velocity": 100, "MIDI": 59 }],
          [{ "duration": 24, "velocity": 100, "MIDI": 62 }],
          [{ "duration": 24, "velocity": 100, "MIDI": 67 }],
          [{ "duration": 24, "velocity": 100, "MIDI": 71 }],
          [{ "duration": 24, "velocity": 100, "MIDI": 62 }],
          [{ "duration": 24, "velocity": 100, "MIDI": 67 }],
          [{ "duration": 24, "velocity": 100, "MIDI": 71 }],
          [{ "duration": 24, "velocity": 100, "MIDI": 55 }],
          [{ "duration": 24, "velocity": 100, "MIDI": 59 }],
          [{ "duration": 24, "velocity": 100, "MIDI": 62 }],
          [{ "duration": 24, "velocity": 100, "MIDI": 67 }],
          [{ "duration": 24, "velocity": 100, "MIDI": 71 }],
          [{ "duration": 24, "velocity": 100, "MIDI": 62 }],
          [{ "duration": 24, "velocity": 100, "MIDI": 67 }],
          [{ "duration": 24, "velocity": 100, "MIDI": 71 }],
          [{ "duration": 24, "velocity": 100, "MIDI": 55 }],
          [{ "duration": 24, "velocity": 100, "MIDI": 58 }],
          [{ "duration": 24, "velocity": 100, "MIDI": 64 }],
          [{ "duration": 24, "velocity": 100, "MIDI": 67 }],
          [{ "duration": 24, "velocity": 100, "MIDI": 73 }],
          [{ "duration": 24, "velocity": 100, "MIDI": 64 }],
          [{ "duration": 24, "velocity": 100, "MIDI": 67 }],
          [{ "duration": 24, "velocity": 100, "MIDI": 73 }],
          [{ "duration": 24, "velocity": 100, "MIDI": 55 }],
          [{ "duration": 24, "velocity": 100, "MIDI": 61 }],
          [{ "duration": 24, "velocity": 100, "MIDI": 64 }],
          [{ "duration": 24, "velocity": 100, "MIDI": 67 }],
          [{ "duration": 24, "velocity": 100, "MIDI": 73 }],
          [{ "duration": 24, "velocity": 100, "MIDI": 64 }],
          [{ "duration": 24, "velocity": 100, "MIDI": 67 }],
          [{ "duration": 24, "velocity": 100, "MIDI": 73 }],
          [{ "duration": 24, "velocity": 100, "MIDI": 53 }],
          [{ "duration": 24, "velocity": 100, "MIDI": 57 }],
          [{ "duration": 24, "velocity": 100, "MIDI": 62 }],
          [{ "duration": 24, "velocity": 100, "MIDI": 69 }],
          [{ "duration": 24, "velocity": 100, "MIDI": 74 }],
          [{ "duration": 24, "velocity": 100, "MIDI": 65 }],
          [{ "duration": 24, "velocity": 100, "MIDI": 69 }],
          [{ "duration": 24, "velocity": 100, "MIDI": 74 }],
          [{ "duration": 24, "velocity": 100, "MIDI": 53 }],
          [{ "duration": 24, "velocity": 100, "MIDI": 57 }],
          [{ "duration": 24, "velocity": 100, "MIDI": 65 }],
          [{ "duration": 24, "velocity": 100, "MIDI": 69 }],
          [{ "duration": 24, "velocity": 100, "MIDI": 74 }],
          [{ "duration": 24, "velocity": 100, "MIDI": 65 }],
          [{ "duration": 24, "velocity": 100, "MIDI": 69 }],
          [{ "duration": 24, "velocity": 100, "MIDI": 74 }],
          [{ "duration": 24, "velocity": 100, "MIDI": 53 }],
          [{ "duration": 24, "velocity": 100, "MIDI": 56 }],
          [{ "duration": 24, "velocity": 100, "MIDI": 62 }],
          [{ "duration": 24, "velocity": 100, "MIDI": 65 }],
          [{ "duration": 24, "velocity": 100, "MIDI": 71 }],
          [{ "duration": 24, "velocity": 100, "MIDI": 62 }],
          [{ "duration": 24, "velocity": 100, "MIDI": 65 }],
          [{ "duration": 24, "velocity": 100, "MIDI": 71 }],
          [{ "duration": 24, "velocity": 100, "MIDI": 53 }],
          [{ "duration": 24, "velocity": 100, "MIDI": 59 }],
          [{ "duration": 24, "velocity": 100, "MIDI": 62 }],
          [{ "duration": 24, "velocity": 100, "MIDI": 65 }],
          [{ "duration": 24, "velocity": 100, "MIDI": 71 }],
          [{ "duration": 24, "velocity": 100, "MIDI": 62 }],
          [{ "duration": 24, "velocity": 100, "MIDI": 65 }],
          [{ "duration": 24, "velocity": 100, "MIDI": 71 }],
          [{ "duration": 24, "velocity": 100, "MIDI": 52 }],
          [{ "duration": 24, "velocity": 100, "MIDI": 55 }],
          [{ "duration": 24, "velocity": 100, "MIDI": 60 }],
          [{ "duration": 24, "velocity": 100, "MIDI": 67 }],
          [{ "duration": 24, "velocity": 100, "MIDI": 72 }],
          [{ "duration": 24, "velocity": 100, "MIDI": 64 }],
          [{ "duration": 24, "velocity": 100, "MIDI": 67 }],
          [{ "duration": 24, "velocity": 100, "MIDI": 72 }],
          [{ "duration": 24, "velocity": 100, "MIDI": 52 }],
          [{ "duration": 24, "velocity": 100, "MIDI": 55 }],
          [{ "duration": 24, "velocity": 100, "MIDI": 64 }],
          [{ "duration": 24, "velocity": 100, "MIDI": 67 }],
          [{ "duration": 24, "velocity": 100, "MIDI": 72 }],
          [{ "duration": 24, "velocity": 100, "MIDI": 64 }],
          [{ "duration": 24, "velocity": 100, "MIDI": 67 }],
          [{ "duration": 24, "velocity": 100, "MIDI": 72 }],
          [{ "duration": 24, "velocity": 100, "MIDI": 52 }],
          [{ "duration": 24, "velocity": 100, "MIDI": 53 }],
          [{ "duration": 24, "velocity": 100, "MIDI": 57 }],
          [{ "duration": 24, "velocity": 100, "MIDI": 60 }],
          [{ "duration": 24, "velocity": 100, "MIDI": 65 }],
          [{ "duration": 24, "velocity": 100, "MIDI": 57 }],
          [{ "duration": 24, "velocity": 100, "MIDI": 60 }],
          [{ "duration": 24, "velocity": 100, "MIDI": 65 }],
          [{ "duration": 24, "velocity": 100, "MIDI": 52 }],
          [{ "duration": 24, "velocity": 100, "MIDI": 53 }],
          [{ "duration": 24, "velocity": 100, "MIDI": 57 }],
          [{ "duration": 24, "velocity": 100, "MIDI": 60 }],
          [{ "duration": 24, "velocity": 100, "MIDI": 65 }],
          [{ "duration": 24, "velocity": 100, "MIDI": 57 }],
          [{ "duration": 24, "velocity": 100, "MIDI": 60 }],
          [{ "duration": 24, "velocity": 100, "MIDI": 65 }],
          [{ "duration": 24, "velocity": 100, "MIDI": 50 }],
          [{ "duration": 24, "velocity": 100, "MIDI": 53 }],
          [{ "duration": 24, "velocity": 100, "MIDI": 57 }],
          [{ "duration": 24, "velocity": 100, "MIDI": 60 }],
          [{ "duration": 24, "velocity": 100, "MIDI": 65 }],
          [{ "duration": 24, "velocity": 100, "MIDI": 57 }],
          [{ "duration": 24, "velocity": 100, "MIDI": 60 }],
          [{ "duration": 24, "velocity": 100, "MIDI": 65 }],
          [{ "duration": 24, "velocity": 100, "MIDI": 50 }],
          [{ "duration": 24, "velocity": 100, "MIDI": 53 }],
          [{ "duration": 24, "velocity": 100, "MIDI": 57 }],
          [{ "duration": 24, "velocity": 100, "MIDI": 60 }],
          [{ "duration": 24, "velocity": 100, "MIDI": 65 }],
          [{ "duration": 24, "velocity": 100, "MIDI": 57 }],
          [{ "duration": 24, "velocity": 100, "MIDI": 60 }],
          [{ "duration": 24, "velocity": 100, "MIDI": 65 }],
          [{ "duration": 24, "velocity": 100, "MIDI": 43 }],
          [{ "duration": 24, "velocity": 100, "MIDI": 50 }],
          [{ "duration": 24, "velocity": 100, "MIDI": 55 }],
          [{ "duration": 24, "velocity": 100, "MIDI": 59 }],
          [{ "duration": 24, "velocity": 100, "MIDI": 65 }],
          [{ "duration": 24, "velocity": 100, "MIDI": 55 }],
          [{ "duration": 24, "velocity": 100, "MIDI": 59 }],
          [{ "duration": 24, "velocity": 100, "MIDI": 65 }],
          [{ "duration": 24, "velocity": 100, "MIDI": 43 }],
          [{ "duration": 24, "velocity": 100, "MIDI": 50 }],
          [{ "duration": 24, "velocity": 100, "MIDI": 55 }],
          [{ "duration": 24, "velocity": 100, "MIDI": 59 }],
          [{ "duration": 24, "velocity": 100, "MIDI": 65 }],
          [{ "duration": 24, "velocity": 100, "MIDI": 55 }],
          [{ "duration": 24, "velocity": 100, "MIDI": 59 }],
          [{ "duration": 24, "velocity": 100, "MIDI": 65 }],
          [{ "duration": 24, "velocity": 100, "MIDI": 48 }],
          [{ "duration": 24, "velocity": 100, "MIDI": 52 }],
          [{ "duration": 24, "velocity": 100, "MIDI": 55 }],
          [{ "duration": 24, "velocity": 100, "MIDI": 60 }],
          [{ "duration": 24, "velocity": 100, "MIDI": 64 }],
          [{ "duration": 24, "velocity": 100, "MIDI": 55 }],
          [{ "duration": 24, "velocity": 100, "MIDI": 60 }],
          [{ "duration": 24, "velocity": 100, "MIDI": 64 }],
          [{ "duration": 24, "velocity": 100, "MIDI": 48 }],
          [{ "duration": 24, "velocity": 100, "MIDI": 52 }],
          [{ "duration": 24, "velocity": 100, "MIDI": 55 }],
          [{ "duration": 24, "velocity": 100, "MIDI": 60 }],
          [{ "duration": 24, "velocity": 100, "MIDI": 64 }],
          [{ "duration": 24, "velocity": 100, "MIDI": 55 }],
          [{ "duration": 24, "velocity": 100, "MIDI": 60 }],
          [{ "duration": 24, "velocity": 100, "MIDI": 64 }],
          [{ "duration": 24, "velocity": 100, "MIDI": 48 }],
          [{ "duration": 24, "velocity": 100, "MIDI": 55 }],
          [{ "duration": 24, "velocity": 100, "MIDI": 58 }],
          [{ "duration": 24, "velocity": 100, "MIDI": 60 }],
          [{ "duration": 24, "velocity": 100, "MIDI": 64 }],
          [{ "duration": 24, "velocity": 100, "MIDI": 58 }],
          [{ "duration": 24, "velocity": 100, "MIDI": 60 }],
          [{ "duration": 24, "velocity": 100, "MIDI": 64 }],
          [{ "duration": 24, "velocity": 100, "MIDI": 48 }],
          [{ "duration": 24, "velocity": 100, "MIDI": 55 }],
          [{ "duration": 24, "velocity": 100, "MIDI": 58 }],
          [{ "duration": 24, "velocity": 100, "MIDI": 60 }],
          [{ "duration": 24, "velocity": 100, "MIDI": 64 }],
          [{ "duration": 24, "velocity": 100, "MIDI": 58 }],
          [{ "duration": 24, "velocity": 100, "MIDI": 60 }],
          [{ "duration": 24, "velocity": 100, "MIDI": 64 }],
          [{ "duration": 24, "velocity": 100, "MIDI": 41 }],
          [{ "duration": 24, "velocity": 100, "MIDI": 53 }],
          [{ "duration": 24, "velocity": 100, "MIDI": 57 }],
          [{ "duration": 24, "velocity": 100, "MIDI": 60 }],
          [{ "duration": 24, "velocity": 100, "MIDI": 64 }],
          [{ "duration": 24, "velocity": 100, "MIDI": 57 }],
          [{ "duration": 24, "velocity": 100, "MIDI": 60 }],
          [{ "duration": 24, "velocity": 100, "MIDI": 64 }],
          [{ "duration": 24, "velocity": 100, "MIDI": 41 }],
          [{ "duration": 24, "velocity": 100, "MIDI": 53 }],
          [{ "duration": 24, "velocity": 100, "MIDI": 57 }],
          [{ "duration": 24, "velocity": 100, "MIDI": 60 }],
          [{ "duration": 24, "velocity": 100, "MIDI": 64 }],
          [{ "duration": 24, "velocity": 100, "MIDI": 57 }],
          [{ "duration": 24, "velocity": 100, "MIDI": 60 }],
          [{ "duration": 24, "velocity": 100, "MIDI": 64 }],
          [{ "duration": 24, "velocity": 100, "MIDI": 42 }],
          [{ "duration": 24, "velocity": 100, "MIDI": 48 }],
          [{ "duration": 24, "velocity": 100, "MIDI": 57 }],
          [{ "duration": 24, "velocity": 100, "MIDI": 60 }],
          [{ "duration": 24, "velocity": 100, "MIDI": 63 }],
          [{ "duration": 24, "velocity": 100, "MIDI": 57 }],
          [{ "duration": 24, "velocity": 100, "MIDI": 60 }],
          [{ "duration": 24, "velocity": 100, "MIDI": 63 }],
          [{ "duration": 24, "velocity": 100, "MIDI": 42 }],
          [{ "duration": 24, "velocity": 100, "MIDI": 48 }],
          [{ "duration": 24, "velocity": 100, "MIDI": 57 }],
          [{ "duration": 24, "velocity": 100, "MIDI": 60 }],
          [{ "duration": 24, "velocity": 100, "MIDI": 63 }],
          [{ "duration": 24, "velocity": 100, "MIDI": 57 }],
          [{ "duration": 24, "velocity": 100, "MIDI": 60 }],
          [{ "duration": 24, "velocity": 100, "MIDI": 63 }],
          [{ "duration": 24, "velocity": 100, "MIDI": 44 }],
          [{ "duration": 24, "velocity": 100, "MIDI": 53 }],
          [{ "duration": 24, "velocity": 100, "MIDI": 59 }],
          [{ "duration": 24, "velocity": 100, "MIDI": 60 }],
          [{ "duration": 24, "velocity": 100, "MIDI": 62 }],
          [{ "duration": 24, "velocity": 100, "MIDI": 59 }],
          [{ "duration": 24, "velocity": 100, "MIDI": 60 }],
          [{ "duration": 24, "velocity": 100, "MIDI": 62 }],
          [{ "duration": 24, "velocity": 100, "MIDI": 44 }],
          [{ "duration": 24, "velocity": 100, "MIDI": 53 }],
          [{ "duration": 24, "velocity": 100, "MIDI": 59 }],
          [{ "duration": 24, "velocity": 100, "MIDI": 60 }],
          [{ "duration": 24, "velocity": 100, "MIDI": 62 }],
          [{ "duration": 24, "velocity": 100, "MIDI": 59 }],
          [{ "duration": 24, "velocity": 100, "MIDI": 60 }],
          [{ "duration": 24, "velocity": 100, "MIDI": 62 }],
          [{ "duration": 24, "velocity": 100, "MIDI": 43 }],
          [{ "duration": 24, "velocity": 100, "MIDI": 53 }],
          [{ "duration": 24, "velocity": 100, "MIDI": 55 }],
          [{ "duration": 24, "velocity": 100, "MIDI": 59 }],
          [{ "duration": 24, "velocity": 100, "MIDI": 62 }],
          [{ "duration": 24, "velocity": 100, "MIDI": 55 }],
          [{ "duration": 24, "velocity": 100, "MIDI": 59 }],
          [{ "duration": 24, "velocity": 100, "MIDI": 62 }],
          [{ "duration": 24, "velocity": 100, "MIDI": 43 }],
          [{ "duration": 24, "velocity": 100, "MIDI": 53 }],
          [{ "duration": 24, "velocity": 100, "MIDI": 55 }],
          [{ "duration": 24, "velocity": 100, "MIDI": 59 }],
          [{ "duration": 24, "velocity": 100, "MIDI": 62 }],
          [{ "duration": 24, "velocity": 100, "MIDI": 55 }],
          [{ "duration": 24, "velocity": 100, "MIDI": 59 }],
          [{ "duration": 24, "velocity": 100, "MIDI": 62 }],
          [{ "duration": 24, "velocity": 100, "MIDI": 43 }],
          [{ "duration": 24, "velocity": 100, "MIDI": 52 }],
          [{ "duration": 24, "velocity": 100, "MIDI": 55 }],
          [{ "duration": 24, "velocity": 100, "MIDI": 60 }],
          [{ "duration": 24, "velocity": 100, "MIDI": 64 }],
          [{ "duration": 24, "velocity": 100, "MIDI": 55 }],
          [{ "duration": 24, "velocity": 100, "MIDI": 60 }],
          [{ "duration": 24, "velocity": 100, "MIDI": 64 }],
          [{ "duration": 24, "velocity": 100, "MIDI": 43 }],
          [{ "duration": 24, "velocity": 100, "MIDI": 52 }],
          [{ "duration": 24, "velocity": 100, "MIDI": 55 }],
          [{ "duration": 24, "velocity": 100, "MIDI": 60 }],
          [{ "duration": 24, "velocity": 100, "MIDI": 64 }],
          [{ "duration": 24, "velocity": 100, "MIDI": 55 }],
          [{ "duration": 24, "velocity": 100, "MIDI": 60 }],
          [{ "duration": 24, "velocity": 100, "MIDI": 64 }],
          [{ "duration": 24, "velocity": 100, "MIDI": 43 }],
          [{ "duration": 24, "velocity": 100, "MIDI": 50 }],
          [{ "duration": 24, "velocity": 100, "MIDI": 55 }],
          [{ "duration": 24, "velocity": 100, "MIDI": 60 }],
          [{ "duration": 24, "velocity": 100, "MIDI": 65 }],
          [{ "duration": 24, "velocity": 100, "MIDI": 55 }],
          [{ "duration": 24, "velocity": 100, "MIDI": 60 }],
          [{ "duration": 24, "velocity": 100, "MIDI": 65 }],
          [{ "duration": 24, "velocity": 100, "MIDI": 43 }],
          [{ "duration": 24, "velocity": 100, "MIDI": 50 }],
          [{ "duration": 24, "velocity": 100, "MIDI": 55 }],
          [{ "duration": 24, "velocity": 100, "MIDI": 60 }],
          [{ "duration": 24, "velocity": 100, "MIDI": 65 }],
          [{ "duration": 24, "velocity": 100, "MIDI": 55 }],
          [{ "duration": 24, "velocity": 100, "MIDI": 60 }],
          [{ "duration": 24, "velocity": 100, "MIDI": 65 }],
          [{ "duration": 24, "velocity": 100, "MIDI": 43 }],
          [{ "duration": 24, "velocity": 100, "MIDI": 50 }],
          [{ "duration": 24, "velocity": 100, "MIDI": 55 }],
          [{ "duration": 24, "velocity": 100, "MIDI": 59 }],
          [{ "duration": 24, "velocity": 100, "MIDI": 65 }],
          [{ "duration": 24, "velocity": 100, "MIDI": 55 }],
          [{ "duration": 24, "velocity": 100, "MIDI": 59 }],
          [{ "duration": 24, "velocity": 100, "MIDI": 65 }],
          [{ "duration": 24, "velocity": 100, "MIDI": 43 }],
          [{ "duration": 24, "velocity": 100, "MIDI": 50 }],
          [{ "duration": 24, "velocity": 100, "MIDI": 55 }],
          [{ "duration": 24, "velocity": 100, "MIDI": 59 }],
          [{ "duration": 24, "velocity": 100, "MIDI": 65 }],
          [{ "duration": 24, "velocity": 100, "MIDI": 55 }],
          [{ "duration": 24, "velocity": 100, "MIDI": 59 }],
          [{ "duration": 24, "velocity": 100, "MIDI": 65 }],
          [{ "duration": 24, "velocity": 100, "MIDI": 43 }],
          [{ "duration": 24, "velocity": 100, "MIDI": 51 }],
          [{ "duration": 24, "velocity": 100, "MIDI": 57 }],
          [{ "duration": 24, "velocity": 100, "MIDI": 60 }],
          [{ "duration": 24, "velocity": 100, "MIDI": 66 }],
          [{ "duration": 24, "velocity": 100, "MIDI": 57 }],
          [{ "duration": 24, "velocity": 100, "MIDI": 60 }],
          [{ "duration": 24, "velocity": 100, "MIDI": 66 }],
          [{ "duration": 24, "velocity": 100, "MIDI": 43 }],
          [{ "duration": 24, "velocity": 100, "MIDI": 51 }],
          [{ "duration": 24, "velocity": 100, "MIDI": 57 }],
          [{ "duration": 24, "velocity": 100, "MIDI": 60 }],
          [{ "duration": 24, "velocity": 100, "MIDI": 66 }],
          [{ "duration": 24, "velocity": 100, "MIDI": 57 }],
          [{ "duration": 24, "velocity": 100, "MIDI": 60 }],
          [{ "duration": 24, "velocity": 100, "MIDI": 66 }],
          [{ "duration": 24, "velocity": 100, "MIDI": 43 }],
          [{ "duration": 24, "velocity": 100, "MIDI": 52 }],
          [{ "duration": 24, "velocity": 100, "MIDI": 55 }],
          [{ "duration": 24, "velocity": 100, "MIDI": 60 }],
          [{ "duration": 24, "velocity": 100, "MIDI": 67 }],
          [{ "duration": 24, "velocity": 100, "MIDI": 55 }],
          [{ "duration": 24, "velocity": 100, "MIDI": 60 }],
          [{ "duration": 24, "velocity": 100, "MIDI": 67 }],
          [{ "duration": 24, "velocity": 100, "MIDI": 43 }],
          [{ "duration": 24, "velocity": 100, "MIDI": 52 }],
          [{ "duration": 24, "velocity": 100, "MIDI": 55 }],
          [{ "duration": 24, "velocity": 100, "MIDI": 60 }],
          [{ "duration": 24, "velocity": 100, "MIDI": 67 }],
          [{ "duration": 24, "velocity": 100, "MIDI": 55 }],
          [{ "duration": 24, "velocity": 100, "MIDI": 60 }],
          [{ "duration": 24, "velocity": 100, "MIDI": 67 }],
          [{ "duration": 24, "velocity": 100, "MIDI": 43 }],
          [{ "duration": 24, "velocity": 100, "MIDI": 50 }],
          [{ "duration": 24, "velocity": 100, "MIDI": 55 }],
          [{ "duration": 24, "velocity": 100, "MIDI": 60 }],
          [{ "duration": 24, "velocity": 100, "MIDI": 65 }],
          [{ "duration": 24, "velocity": 100, "MIDI": 55 }],
          [{ "duration": 24, "velocity": 100, "MIDI": 60 }],
          [{ "duration": 24, "velocity": 100, "MIDI": 65 }],
          [{ "duration": 24, "velocity": 100, "MIDI": 43 }],
          [{ "duration": 24, "velocity": 100, "MIDI": 50 }],
          [{ "duration": 24, "velocity": 100, "MIDI": 55 }],
          [{ "duration": 24, "velocity": 100, "MIDI": 60 }],
          [{ "duration": 24, "velocity": 100, "MIDI": 65 }],
          [{ "duration": 24, "velocity": 100, "MIDI": 55 }],
          [{ "duration": 24, "velocity": 100, "MIDI": 60 }],
          [{ "duration": 24, "velocity": 100, "MIDI": 65 }],
          [{ "duration": 24, "velocity": 100, "MIDI": 43 }],
          [{ "duration": 24, "velocity": 100, "MIDI": 50 }],
          [{ "duration": 24, "velocity": 100, "MIDI": 55 }],
          [{ "duration": 24, "velocity": 100, "MIDI": 59 }],
          [{ "duration": 24, "velocity": 100, "MIDI": 65 }],
          [{ "duration": 24, "velocity": 100, "MIDI": 55 }],
          [{ "duration": 24, "velocity": 100, "MIDI": 59 }],
          [{ "duration": 24, "velocity": 100, "MIDI": 65 }],
          [{ "duration": 24, "velocity": 100, "MIDI": 43 }],
          [{ "duration": 24, "velocity": 100, "MIDI": 50 }],
          [{ "duration": 24, "velocity": 100, "MIDI": 55 }],
          [{ "duration": 24, "velocity": 100, "MIDI": 59 }],
          [{ "duration": 24, "velocity": 100, "MIDI": 65 }],
          [{ "duration": 24, "velocity": 100, "MIDI": 55 }],
          [{ "duration": 24, "velocity": 100, "MIDI": 59 }],
          [{ "duration": 24, "velocity": 100, "MIDI": 65 }],
          [{ "duration": 24, "velocity": 100, "MIDI": 36 }],
          [{ "duration": 24, "velocity": 100, "MIDI": 48 }],
          [{ "duration": 24, "velocity": 100, "MIDI": 55 }],
          [{ "duration": 24, "velocity": 100, "MIDI": 58 }],
          [{ "duration": 24, "velocity": 100, "MIDI": 64 }],
          [{ "duration": 24, "velocity": 100, "MIDI": 55 }],
          [{ "duration": 24, "velocity": 100, "MIDI": 58 }],
          [{ "duration": 24, "velocity": 100, "MIDI": 64 }],
          [{ "duration": 24, "velocity": 100, "MIDI": 36 }],
          [{ "duration": 24, "velocity": 100, "MIDI": 48 }],
          [{ "duration": 24, "velocity": 100, "MIDI": 55 }],
          [{ "duration": 24, "velocity": 100, "MIDI": 58 }],
          [{ "duration": 24, "velocity": 100, "MIDI": 64 }],
          [{ "duration": 24, "velocity": 100, "MIDI": 55 }],
          [{ "duration": 24, "velocity": 100, "MIDI": 58 }],
          [{ "duration": 24, "velocity": 100, "MIDI": 64 }],
          [{ "duration": 24, "velocity": 100, "MIDI": 36 }],
          [{ "duration": 24, "velocity": 100, "MIDI": 48 }],
          [{ "duration": 24, "velocity": 100, "MIDI": 53 }],
          [{ "duration": 24, "velocity": 100, "MIDI": 57 }],
          [{ "duration": 24, "velocity": 100, "MIDI": 60 }],
          [{ "duration": 24, "velocity": 100, "MIDI": 65 }],
          [{ "duration": 24, "velocity": 100, "MIDI": 60 }],
          [{ "duration": 24, "velocity": 100, "MIDI": 57 }],
          [{ "duration": 24, "velocity": 100, "MIDI": 60 }],
          [{ "duration": 24, "velocity": 100, "MIDI": 57 }],
          [{ "duration": 24, "velocity": 100, "MIDI": 53 }],
          [{ "duration": 24, "velocity": 100, "MIDI": 57 }],
          [{ "duration": 24, "velocity": 100, "MIDI": 53 }],
          [{ "duration": 24, "velocity": 100, "MIDI": 50 }],
          [{ "duration": 24, "velocity": 100, "MIDI": 53 }],
          [{ "duration": 24, "velocity": 100, "MIDI": 50 }],
          [{ "duration": 24, "velocity": 100, "MIDI": 36 }],
          [{ "duration": 24, "velocity": 100, "MIDI": 47 }],
          [{ "duration": 24, "velocity": 100, "MIDI": 67 }],
          [{ "duration": 24, "velocity": 100, "MIDI": 71 }],
          [{ "duration": 24, "velocity": 100, "MIDI": 74 }],
          [{ "duration": 24, "velocity": 100, "MIDI": 77 }],
          [{ "duration": 24, "velocity": 100, "MIDI": 74 }],
          [{ "duration": 24, "velocity": 100, "MIDI": 71 }],
          [{ "duration": 24, "velocity": 100, "MIDI": 74 }],
          [{ "duration": 24, "velocity": 100, "MIDI": 71 }],
          [{ "duration": 24, "velocity": 100, "MIDI": 67 }],
          [{ "duration": 24, "velocity": 100, "MIDI": 71 }],
          [{ "duration": 24, "velocity": 100, "MIDI": 62 }],
          [{ "duration": 24, "velocity": 100, "MIDI": 65 }],
          [{ "duration": 24, "velocity": 100, "MIDI": 64 }],
          [{ "duration": 24, "velocity": 100, "MIDI": 62 }],
          [
            { "duration": 384, "velocity": 100, "MIDI": 36 },
            { "duration": 384, "velocity": 100, "MIDI": 48 },
            { "duration": 384, "velocity": 100, "MIDI": 64 },
            { "duration": 384, "velocity": 100, "MIDI": 67 },
            { "duration": 384, "velocity": 100, "MIDI": 72 }
          ]
        ]
      }
    },
    "ids": ["pattern_AoNZorXxksdx1ShDeNCG_"]
  },
  "poses": {
    "entities": {
      "pose_aceZh08F2Dlmkk5fGfybN": {
        "id": "pose_aceZh08F2Dlmkk5fGfybN",
        "operations": [
          {
            "id": "script",
            "args": "return note + Math.sin(index / length * Math.PI / 2)"
          }
        ]
      }
    },
    "ids": ["pose_aceZh08F2Dlmkk5fGfybN"]
  },
  "patternClips": {
    "entities": {
      "pattern-clip_NhbD0T8lkbmwk0xZq267Y": {
        "trackId": "pattern-track_hcsVd73Ho5iWV7LtD-dA3",
        "patternId": "pattern_AoNZorXxksdx1ShDeNCG_",
        "tick": 0,
        "id": "pattern-clip_NhbD0T8lkbmwk0xZq267Y"
      }
    },
    "ids": ["pattern-clip_NhbD0T8lkbmwk0xZq267Y"]
  },
  "poseClips": {
    "entities": {
      "pose-clip_K09EZwKk21QImcckB-k4r": {
        "id": "pose-clip_K09EZwKk21QImcckB-k4r",
        "trackId": "pattern-track_hcsVd73Ho5iWV7LtD-dA3",
        "tick": 0,
        "poseId": "pose_aceZh08F2Dlmkk5fGfybN"
      }
    },
    "ids": ["pose-clip_K09EZwKk21QImcckB-k4r"]
  },
  "portals": { "entities": {}, "ids": [] },
  "instruments": {
    "entities": {
      "gyF2-qlXY5TaEWKQMvfq7": {
        "id": "gyF2-qlXY5TaEWKQMvfq7",
        "trackId": "pattern-track_hcsVd73Ho5iWV7LtD-dA3",
        "key": "upright-piano",
        "volume": -6,
        "pan": 0,
        "mute": false,
        "solo": false,
        "effects": []
      }
    },
    "ids": ["gyF2-qlXY5TaEWKQMvfq7"]
  },
  "timeline": {
    "state": "idle",
    "type": "pattern",
    "tick": 0,
    "fragment": {},
    "clipboard": { "clips": [], "portals": [] },
    "selection": { "clipIds": [], "portalIds": [] },
    "subdivision": "16n",
    "cellWidth": 25,
    "cellHeight": 120
  },
  "transport": {
    "bpm": 120,
    "timeSignature": 4,
    "swing": 0,
    "loop": false,
    "loopStart": 0,
    "loopEnd": 383,
    "volume": 0,
    "mute": false,
    "scroll": 0
  }
}
